<?xml version="1.0" encoding="UTF-8" standalone="no"?>
<!DOCTYPE svg PUBLIC "-//W3C//DTD SVG 1.1//EN"
 "http://www.w3.org/Graphics/SVG/1.1/DTD/svg11.dtd">
<!-- Generated by graphviz version 7.0.6 (20230106.0513)
 -->
<!-- Title: dependency&#45;cruiser output Pages: 1 -->
<svg width="319pt" height="136pt"
 viewBox="0.00 0.00 319.00 136.00" xmlns="http://www.w3.org/2000/svg" xmlns:xlink="http://www.w3.org/1999/xlink">
<g id="graph0" class="graph" transform="scale(1 1) rotate(0) translate(4 132)">
<title>dependency&#45;cruiser output</title>
<polygon fill="white" stroke="none" points="-4,4 -4,-132 315,-132 315,4 -4,4"/>
<g id="clust1" class="cluster">
<title>cluster_app</title>
<path fill="#ffffff" stroke="black" stroke-width="2" d="M20,-8C20,-8 291,-8 291,-8 297,-8 303,-14 303,-20 303,-20 303,-108 303,-108 303,-114 297,-120 291,-120 291,-120 20,-120 20,-120 14,-120 8,-114 8,-108 8,-108 8,-20 8,-20 8,-14 14,-8 20,-8"/>
<text text-anchor="middle" x="155.5" y="-108.8" font-family="Helvetica,sans-Serif" font-weight="bold" font-size="9.00">app</text>
</g>
<g id="clust2" class="cluster">
<title>cluster_app/student</title>
<path fill="#ffffff" stroke="black" stroke-width="2" d="M90,-16C90,-16 283,-16 283,-16 289,-16 295,-22 295,-28 295,-28 295,-56 295,-56 295,-62 289,-68 283,-68 283,-68 90,-68 90,-68 84,-68 78,-62 78,-56 78,-56 78,-28 78,-28 78,-22 84,-16 90,-16"/>
<text text-anchor="middle" x="186.5" y="-56.8" font-family="Helvetica,sans-Serif" font-weight="bold" font-size="9.00">student</text>
</g>
<!-- app/config.js -->
<g id="node1" class="node">
<title>app/config.js</title>
<g id="a_node1"><a xlink:href="app/config.js" xlink:title="config.js">
<path fill="#ffffcc" stroke="black" d="M279.5,-94C279.5,-94 237.5,-94 237.5,-94 234.5,-94 231.5,-91 231.5,-88 231.5,-88 231.5,-82 231.5,-82 231.5,-79 234.5,-76 237.5,-76 237.5,-76 279.5,-76 279.5,-76 282.5,-76 285.5,-79 285.5,-82 285.5,-82 285.5,-88 285.5,-88 285.5,-91 282.5,-94 279.5,-94"/>
<text text-anchor="start" x="241.5" y="-82.8" font-family="Helvetica,sans-Serif" font-size="9.00">config.js</text>
</a>
</g>
</g>
<!-- app/index.js -->
<g id="node2" class="node">
<title>app/index.js</title>
<g id="a_node2"><a xlink:href="app/index.js" xlink:title="index.js">
<path fill="#ffffcc" stroke="black" d="M64,-42C64,-42 22,-42 22,-42 19,-42 16,-39 16,-36 16,-36 16,-30 16,-30 16,-27 19,-24 22,-24 22,-24 64,-24 64,-24 67,-24 70,-27 70,-30 70,-30 70,-36 70,-36 70,-39 67,-42 64,-42"/>
<text text-anchor="start" x="27" y="-30.8" font-family="Helvetica,sans-Serif" font-size="9.00">index.js</text>
</a>
</g>
</g>
<!-- app/student/routes.js -->
<g id="node3" class="node">
<title>app/student/routes.js</title>
<g id="a_node3"><a xlink:href="app/student/routes.js" xlink:title="routes.js">
<path fill="#ffffcc" stroke="black" d="M134,-42C134,-42 92,-42 92,-42 89,-42 86,-39 86,-36 86,-36 86,-30 86,-30 86,-27 89,-24 92,-24 92,-24 134,-24 134,-24 137,-24 140,-27 140,-30 140,-30 140,-36 140,-36 140,-39 137,-42 134,-42"/>
<text text-anchor="start" x="95.5" y="-30.8" font-family="Helvetica,sans-Serif" font-size="9.00">routes.js</text>
</a>
</g>
</g>
<!-- app/index.js&#45;&gt;app/student/routes.js -->
<g id="edge1" class="edge">
<title>app/index.js&#45;&gt;app/student/routes.js</title>
<path fill="none" stroke="#000000" stroke-width="2" stroke-opacity="0.200000" d="M70.49,-33C72.7,-33 74.97,-33 77.24,-33"/>
<polygon fill="#000000" fill-opacity="0.200000" stroke="#000000" stroke-width="2" stroke-opacity="0.200000" points="76.9,-35.1 82.9,-33 76.9,-30.9 76.9,-35.1"/>
</g>
<!-- app/student/controller.js -->
<g id="node5" class="node">
<title>app/student/controller.js</title>
<g id="a_node5"><a xlink:href="app/student/controller.js" xlink:title="controller.js">
<path fill="#ffffcc" stroke="black" d="M211,-42C211,-42 159,-42 159,-42 156,-42 153,-39 153,-36 153,-36 153,-30 153,-30 153,-27 156,-24 159,-24 159,-24 211,-24 211,-24 214,-24 217,-27 217,-30 217,-30 217,-36 217,-36 217,-39 214,-42 211,-42"/>
<text text-anchor="start" x="161" y="-30.8" font-family="Helvetica,sans-Serif" font-size="9.00">controller.js</text>
</a>
</g>
</g>
<!-- app/student/routes.js&#45;&gt;app/student/controller.js -->
<g id="edge4" class="edge">
<title>app/student/routes.js&#45;&gt;app/student/controller.js</title>
<path fill="none" stroke="#000000" stroke-width="2" stroke-opacity="0.200000" d="M140.46,-33C141.6,-33 142.74,-33 143.89,-33"/>
<polygon fill="#000000" fill-opacity="0.200000" stroke="#000000" stroke-width="2" stroke-opacity="0.200000" points="143.77,-35.1 149.77,-33 143.77,-30.9 143.77,-35.1"/>
</g>
<!-- app/student/Student.js -->
<g id="node4" class="node">
<title>app/student/Student.js</title>
<g id="a_node4"><a xlink:href="app/student/Student.js" xlink:title="Student.js">
<path fill="#ffffcc" stroke="black" d="M281,-42C281,-42 236,-42 236,-42 233,-42 230,-39 230,-36 230,-36 230,-30 230,-30 230,-27 233,-24 236,-24 236,-24 281,-24 281,-24 284,-24 287,-27 287,-30 287,-30 287,-36 287,-36 287,-39 284,-42 281,-42"/>
<text text-anchor="start" x="238" y="-30.8" font-family="Helvetica,sans-Serif" font-size="9.00">Student.js</text>
</a>
</g>
</g>
<!-- app/student/controller.js&#45;&gt;app/config.js -->
<g id="edge2" class="edge">
<title>app/student/controller.js&#45;&gt;app/config.js</title>
<path fill="none" stroke="#000000" stroke-width="2" stroke-opacity="0.200000" d="M195.58,-42.48C203.07,-49.63 214.06,-59.55 230.33,-70.75"/>
<polygon fill="#000000" fill-opacity="0.200000" stroke="#000000" stroke-width="2" stroke-opacity="0.200000" points="228.96,-72.36 235.12,-73.94 231.29,-68.86 228.96,-72.36"/>
</g>
<!-- app/student/controller.js&#45;&gt;app/student/Student.js -->
<g id="edge3" class="edge">
<title>app/student/controller.js&#45;&gt;app/student/Student.js</title>
<path fill="none" stroke="#000000" stroke-width="2" stroke-opacity="0.200000" d="M217.15,-33C218.47,-33 219.8,-33 221.12,-33"/>
<polygon fill="#000000" fill-opacity="0.200000" stroke="#000000" stroke-width="2" stroke-opacity="0.200000" points="220.79,-35.1 226.79,-33 220.79,-30.9 220.79,-35.1"/>
</g>
</g>
</svg>
